<?xml version="1.0" encoding="UTF-8" standalone="no"?>
<!-- Created with Inkscape (http://www.inkscape.org/) -->

<svg
   width="83.821541mm"
   height="10.159995mm"
   viewBox="0 0 83.821541 10.159995"
   version="1.1"
   id="svg1"
   inkscape:export-filename="bitmap.svg"
   inkscape:export-xdpi="96"
   inkscape:export-ydpi="96"
   sodipodi:docname="MovieAppLogo-InkscapeMasterFile-v2.svg"
   inkscape:version="1.4.2 (f4327f4, 2025-05-13)"
   xmlns:inkscape="http://www.inkscape.org/namespaces/inkscape"
   xmlns:sodipodi="http://sodipodi.sourceforge.net/DTD/sodipodi-0.dtd"
   xmlns="http://www.w3.org/2000/svg"
   xmlns:svg="http://www.w3.org/2000/svg">
  <sodipodi:namedview
     id="namedview1"
     pagecolor="#ffffff"
     bordercolor="#000000"
     borderopacity="0.25"
     inkscape:showpageshadow="2"
     inkscape:pageopacity="0.0"
     inkscape:pagecheckerboard="true"
     inkscape:deskcolor="#d1d1d1"
     inkscape:document-units="mm"
     inkscape:zoom="3.8913682"
     inkscape:cx="176.67308"
     inkscape:cy="39.960238"
     inkscape:window-width="1920"
     inkscape:window-height="1009"
     inkscape:window-x="-8"
     inkscape:window-y="-8"
     inkscape:window-maximized="1"
     inkscape:current-layer="layer1">
    <inkscape:page
       x="0"
       y="0"
       width="83.821541"
       height="10.159995"
       id="page2"
       margin="0"
       bleed="0" />
  </sodipodi:namedview>
  <defs
     id="defs1" />
  <g
     inkscape:label="Layer 1"
     inkscape:groupmode="layer"
     id="layer1">
    <path
       style="font-weight:900;font-size:53.3333px;font-family:Orbitron;-inkscape-font-specification:'Orbitron Heavy';white-space:pre;fill:#00d900;fill-opacity:1;stroke-width:0.264583"
       d="M 0,10.159995 V 0 H 2.2577763 L 5.7008855,4.1063333 9.1298836,0 H 11.401771 V 10.159995 H 9.20044 V 3.3443333 L 5.7008855,7.5212177 2.187221,3.3584435 v 6.8015515 z m 15.155316,0 c -0.376295,0 -0.724368,-0.09407 -1.04422,-0.2822209 -0.319852,-0.1881478 -0.573852,-0.4421478 -0.762,-0.762 C 13.160948,8.795922 13.066873,8.4478467 13.066873,8.071551 V 2.0884435 c 0,-0.3857016 0.09408,-0.7337769 0.282223,-1.0442204 0.188148,-0.31985215 0.442148,-0.57385215 0.762,-0.762 C 14.430948,0.09407525 14.779021,0 15.155316,0 h 5.983108 c 0.376298,0 0.719667,0.09407525 1.03011,0.2822231 0.319852,0.18814785 0.573852,0.44214785 0.762,0.762 0.197557,0.3104435 0.296334,0.6585188 0.296334,1.0442204 V 8.071551 c 0,0.3762957 -0.09878,0.724371 -0.296334,1.0442231 -0.188148,0.3198522 -0.442148,0.5738522 -0.762,0.762 -0.310443,0.1881479 -0.653812,0.2822209 -1.03011,0.2822209 z m 0.09878,-2.2013311 h 5.757328 v 0 0 -5.7573306 0 0 h -5.757328 v 0 0 z M 28.78,10.159995 v 0 L 23.99,0 h 2.54 L 29.697,7.3801075 32.866,0 h 2.526 l -4.791,10.159995 z m 7.375,0 V 0 h 2.159 v 10.159995 z m 3.767,0 V 0 h 9.384 v 2.2013333 h -7.169 v 1.778 H 48.9 v 2.2013306 h -6.763 v 1.778 h 7.169 v 2.2013311 z"
       id="text1"
       aria-label="MOVIE"
       sodipodi:nodetypes="cccccccccccccssssscsssccssccsscccccccccccccccccccccccccccccccccccccc" />
    <path
       d="M 50.731,10.159995 V 2.0884465 c 0,-0.3857033 0.09407,-0.733777 0.282222,-1.044221 0.188148,-0.31985203 0.442148,-0.57385204 0.762,-0.76200004 C 52.095073,0.09407746 52.443147,3.4604864e-6 52.819443,3.4604864e-6 h 5.968995 c 0.385704,0 0.733778,0.094073999514 1.044222,0.2822219995136 0.319851,0.188148 0.573851,0.44214801 0.761999,0.76200004 0.197555,0.310444 0.296333,0.6585177 0.296333,1.044221 V 10.159995 H 58.67555 V 6.8862205 h -5.757329 v 3.2737745 z m 2.187221,-5.4751055 h 5.757329 v -2.483554 0 0 h -5.757329 v 0 0 z m 9.581444,5.4751055 V 0.01411446 h 8.057438 c 0.385703,0 0.733777,0.094074 1.044221,0.282222 0.319852,0.188148 0.573852,0.44214801 0.762,0.76200004 0.197555,0.3198513 0.296333,0.667925 0.296333,1.044221 v 2.624665 c 0,0.376296 -0.09878,0.7243697 -0.296333,1.044221 -0.188148,0.319852 -0.442148,0.573852 -0.762,0.762 -0.310444,0.188148 -0.658518,0.282222 -1.044221,0.282222 l -5.870218,0.01411 v 3.3302185 z m 2.18722,-5.5456615 h 5.757329 v 0 0 -2.412998 0 0 h -5.757329 v 0 0 z m 8.974664,5.5456615 V 0.01411446 h 8.057434 c 0.385707,0 0.733783,0.094074 1.04423,0.282222 0.319847,0.188148 0.573843,0.44214801 0.76199,0.76200004 0.19756,0.3198513 0.29634,0.667925 0.29634,1.044221 v 2.624665 c 0,0.376296 -0.09878,0.7243697 -0.29634,1.044221 -0.188147,0.319852 -0.442143,0.573852 -0.76199,0.762 -0.310447,0.188148 -0.658523,0.282222 -1.04423,0.282222 l -5.870214,0.01411 v 3.3302185 z m 2.18722,-5.5456615 h 5.757334 v 0 0 -2.412998 0 0 h -5.757334 v 0 0 z"
       id="text2"
       style="font-weight:900;font-size:14.1111px;font-family:Orbitron;-inkscape-font-specification:'Orbitron Heavy';fill:#01b4e4;fill-opacity:1;stroke-width:0.264583"
       aria-label="APP"
       sodipodi:nodetypes="cscsssccscccccccccccccccccsccsscccccccccccccccccccsccssccccccccccccccccc" />
  </g>
</svg>
